<svg width="32" height="32" viewBox="0 0 32 32" fill="none" xmlns="http://www.w3.org/2000/svg" role="img" aria-label="Aura">
  <path opacity="0.28" d="M16 30.25C23.8701 30.25 30.25 23.8701 30.25 16C30.25 8.12994 23.8701 1.75 16 1.75C8.12994 1.75 1.75 8.12994 1.75 16C1.75 23.8701 8.12994 30.25 16 30.25Z" stroke="#3D9B62" stroke-width="1.25"/>
  <path opacity="0.55" d="M16 26.5C21.799 26.5 26.5 21.799 26.5 16C26.5 10.201 21.799 5.5 16 5.5C10.201 5.5 5.5 10.201 5.5 16C5.5 21.799 10.201 26.5 16 26.5Z" stroke="#3D9B62" stroke-width="1.5"/>
  <path d="M10 22.2L14.64 9H17.32L21.96 22.2H19.98L16.1 10.54H15.86L11.98 22.2H10ZM12.2 19.24V17.84H19.98V19.24H12.2Z" fill="#2C7548"/>
</svg>
